# xmcd CD database file
#
# Track frame offsets:
#	150
#	27632
#	57722
#	83710
#	118802
#	146485
#	171120
#	198105
#	221240
#	247530
#	267957
#	288755
#
# Disc length: 4563 seconds
#
# Revision: 0
# Processed by: cddbd v1.5.2PL0 Copyright (c) Steve Scherf et al.
# Submitted via: CDex 1.51
#
DISCID=af11d10c
DTITLE=Wynton Marsalis - The midnight blues
DYEAR=1998
DGENRE=Jazz
TTITLE0=The party´s over
TTITLE1=You´re blasé
TTITLE2=After you´ve gone
TTITLE3=Glad To Be Unhappy
TTITLE4=It Never Entered My Mind
TTITLE5=Baby, Won't You Please Come Home
TTITLE6=I Guess I'll Hang My Tears Out To Dry
TTITLE7=I Got Lost In Her Arms
TTITLE8=Ballad of The Sad Young Men
TTITLE9=Spring Will Be A Little Late This Year
TTITLE10=My Man's Gone Now
TTITLE11=The Midnight Blues
EXTD=YEAR: 1998
EXTT0=
EXTT1=
EXTT2=
EXTT3=
EXTT4=
EXTT5=
EXTT6=
EXTT7=
EXTT8=
EXTT9=
EXTT10=
EXTT11=
PLAYORDER=
